{
	"asset":{
		"generator":"Khronos glTF Blender I/O v4.0.44",
		"version":"2.0"
	},
	"scene":0,
	"scenes":[
		{
			"name":"Scene",
			"nodes":[
				0
			]
		}
	],
	"nodes":[
		{
			"mesh":0,
			"name":"Heart",
			"scale":[
				0.37660133838653564,
				0.33574178814888,
				0.19978804886341095
			],
			"translation":[
				0.0002585332840681076,
				-0.007994458079338074,
				-0.5006848573684692
			]
		}
	],
	"animations":[
		{
			"channels":[
				{
					"sampler":0,
					"target":{
						"node":0,
						"path":"translation"
					}
				},
				{
					"sampler":1,
					"target":{
						"node":0,
						"path":"rotation"
					}
				},
				{
					"sampler":2,
					"target":{
						"node":0,
						"path":"scale"
					}
				}
			],
			"name":"HeartAction.002",
			"samplers":[
				{
					"input":4,
					"interpolation":"STEP",
					"output":5
				},
				{
					"input":6,
					"interpolation":"LINEAR",
					"output":7
				},
				{
					"input":6,
					"interpolation":"LINEAR",
					"output":8
				}
			]
		}
	],
	"materials":[
		{
			"doubleSided":true,
			"name":"Heart_Texture",
			"pbrMetallicRoughness":{}
		}
	],
	"meshes":[
		{
			"name":"Cube.006",
			"primitives":[
				{
					"attributes":{
						"POSITION":0,
						"NORMAL":1,
						"TEXCOORD_0":2
					},
					"indices":3,
					"material":0
				}
			]
		}
	],
	"accessors":[
		{
			"bufferView":0,
			"componentType":5126,
			"count":27745,
			"max":[
				0.670723557472229,
				0.33807945251464844,
				0.724274218082428
			],
			"min":[
				-0.6707236170768738,
				-0.8958534598350525,
				-0.724274218082428
			],
			"type":"VEC3"
		},
		{
			"bufferView":1,
			"componentType":5126,
			"count":27745,
			"type":"VEC3"
		},
		{
			"bufferView":2,
			"componentType":5126,
			"count":27745,
			"type":"VEC2"
		},
		{
			"bufferView":3,
			"componentType":5123,
			"count":162816,
			"type":"SCALAR"
		},
		{
			"bufferView":4,
			"componentType":5126,
			"count":2,
			"max":[
				10
			],
			"min":[
				0.041666666666666664
			],
			"type":"SCALAR"
		},
		{
			"bufferView":5,
			"componentType":5126,
			"count":2,
			"type":"VEC3"
		},
		{
			"bufferView":6,
			"componentType":5126,
			"count":240,
			"max":[
				10
			],
			"min":[
				0.041666666666666664
			],
			"type":"SCALAR"
		},
		{
			"bufferView":7,
			"componentType":5126,
			"count":240,
			"type":"VEC4"
		},
		{
			"bufferView":8,
			"componentType":5126,
			"count":240,
			"type":"VEC3"
		}
	],
	"bufferViews":[
		{
			"buffer":0,
			"byteLength":332940,
			"byteOffset":0,
			"target":34962
		},
		{
			"buffer":0,
			"byteLength":332940,
			"byteOffset":332940,
			"target":34962
		},
		{
			"buffer":0,
			"byteLength":221960,
			"byteOffset":665880,
			"target":34962
		},
		{
			"buffer":0,
			"byteLength":325632,
			"byteOffset":887840,
			"target":34963
		},
		{
			"buffer":0,
			"byteLength":8,
			"byteOffset":1213472
		},
		{
			"buffer":0,
			"byteLength":24,
			"byteOffset":1213480
		},
		{
			"buffer":0,
			"byteLength":960,
			"byteOffset":1213504
		},
		{
			"buffer":0,
			"byteLength":3840,
			"byteOffset":1214464
		},
		{
			"buffer":0,
			"byteLength":2880,
			"byteOffset":1218304
		}
	],
	"buffers":[
		{
			"byteLength":1221184,
			"uri":"Heart.bin"
		}
	]
}
